# xmcd CD database file
#
# Track frame offsets:
#	150
#	12475
#	23505
#	33802
#	48800
#	61245
#	72000
#	84927
#	93335
#	103752
#	116935
#	127742
#	140175
#	151652
#	162432
#	173027
#	181047
#	193302
#	204205
#	214770
#	225340
#	235700
#	258917
#
# Disc length: 4440 seconds
#
# Revision: 0
# Processed by: cddbd v1.5.2PL0 Copyright (c) Steve Scherf et al.
# Submitted via: CDex 1.51
#
DISCID=1f115617
DTITLE=Faron Young - Country Standards
DYEAR=2003
DGENRE=Country
TTITLE0=Sweet Dreams
TTITLE1=You Are My Sunshine
TTITLE2=I Can't Help It
TTITLE3=Have I Told You That I Love You
TTITLE4=Just Out Of Reach Of My Two Empty Arms
TTITLE5=Hello Walls
TTITLE6=Your Cheatin' Heart
TTITLE7=Hey Good Lookin'
TTITLE8=Tennessee Waltz
TTITLE9=Making Believe
TTITLE10=Almost
TTITLE11=Mom And Dad's Waltz
TTITLE12=Don't Let The Stars Get In Your Eyes
TTITLE13=Bouquet Of Roses
TTITLE14=Slowly
TTITLE15=I'll Go On Alone
TTITLE16=I Fall To Pieces
TTITLE17=Three Days
TTITLE18=I've Got Five Dollars And It's Saturday Night
TTITLE19=If You Ain't Lovin'
TTITLE20=Live Fast, Love Hard, Die Young
TTITLE21=Goin' Steady
TTITLE22=Proprietary Software
EXTD=YEAR: 2003
EXTT0=
EXTT1=
EXTT2=
EXTT3=
EXTT4=
EXTT5=
EXTT6=
EXTT7=
EXTT8=
EXTT9=
EXTT10=
EXTT11=
EXTT12=
EXTT13=
EXTT14=
EXTT15=
EXTT16=
EXTT17=
EXTT18=
EXTT19=
EXTT20=
EXTT21=
EXTT22=
PLAYORDER=
